HIERARCHY
ROOT Hips
{
    OFFSET   0.000000   0.000000   0.000000
    CHANNELS 6 Xposition Yposition Zposition Zrotation Xrotation Yrotation
    JOINT Chest
    {
        OFFSET   0.000000   8.007230   0.000000
        CHANNELS 3 Zrotation Xrotation Yrotation
        JOINT Chest2
        {
            OFFSET   0.000000  22.077100   0.000000
            CHANNELS 3 Zrotation Xrotation Yrotation
            JOINT Neck
            {
                OFFSET   0.000000  23.254700   0.000000
                CHANNELS 3 Zrotation Xrotation Yrotation
                JOINT Head
                {
                    OFFSET   0.000010  14.370000   1.956610
                    CHANNELS 3 Zrotation Xrotation Yrotation
                    End Site
                    {
                        OFFSET   0.000000  19.566000   0.000000
                    }
                }
            }
            JOINT LeftCollar
            {
                OFFSET   3.911900  19.017000  -0.467063
                CHANNELS 3 Zrotation Xrotation Yrotation
                JOINT LeftShoulder
                {
                    OFFSET  10.383700   0.000000   0.000000
                    CHANNELS 3 Zrotation Xrotation Yrotation
                    JOINT LeftElbow
                    {
                        OFFSET  26.662100   0.001671   0.000522
                        CHANNELS 3 Zrotation Xrotation Yrotation
                        JOINT LeftWrist
                        {
                            OFFSET  28.869000   0.000037  -0.000114
                            CHANNELS 3 Zrotation Xrotation Yrotation
                            JOINT LeftFinger0
                            {
                                OFFSET   2.044650  -2.323450   3.252850
                                CHANNELS 3 Zrotation Xrotation Yrotation
                                JOINT LeftFinger01
                                {
                                    OFFSET   3.088140   0.000000   0.000000
                                    CHANNELS 3 Zrotation Xrotation Yrotation
                                    JOINT LeftFinger02
                                    {
                                        OFFSET   2.639460   0.000000   0.000000
                                        CHANNELS 3 Zrotation Xrotation Yrotation
                                        End Site
                                        {
                                            OFFSET   2.582190   0.000000   0.000000
                                        }
                                    }
                                }
                            }
                            JOINT LeftFinger1
                            {
                                OFFSET   8.364480   0.000000   3.252850
                                CHANNELS 3 Zrotation Xrotation Yrotation
                                JOINT LeftFinger11
                                {
                                    OFFSET   4.646930   0.000000   0.000000
                                    CHANNELS 3 Zrotation Xrotation Yrotation
                                    JOINT LeftFinger12
                                    {
                                        OFFSET   2.323470   0.000000   0.000000
                                        CHANNELS 3 Zrotation Xrotation Yrotation
                                        End Site
                                        {
                                            OFFSET   2.273050   0.000000   0.000000
                                        }
                                    }
                                }
                            }
                            JOINT LeftFinger2
                            {
                                OFFSET   8.364490   0.000016   1.078090
                                CHANNELS 3 Zrotation Xrotation Yrotation
                                JOINT LeftFinger21
                                {
                                    OFFSET   5.111620   0.000000   0.000000
                                    CHANNELS 3 Zrotation Xrotation Yrotation
                                    JOINT LeftFinger22
                                    {
                                        OFFSET   2.788150   0.000013   0.000000
                                        CHANNELS 3 Zrotation Xrotation Yrotation
                                        End Site
                                        {
                                            OFFSET   2.727660   0.000000   0.000000
                                        }
                                    }
                                }
                            }
                            JOINT LeftFinger3
                            {
                                OFFSET   7.899780   0.000016  -1.078090
                                CHANNELS 3 Zrotation Xrotation Yrotation
                                JOINT LeftFinger31
                                {
                                    OFFSET   4.646930   0.000000   0.000000
                                    CHANNELS 3 Zrotation Xrotation Yrotation
                                    JOINT LeftFinger32
                                    {
                                        OFFSET   2.323470   0.000000   0.000000
                                        CHANNELS 3 Zrotation Xrotation Yrotation
                                        End Site
                                        {
                                            OFFSET   2.273050   0.000000   0.000000
                                        }
                                    }
                                }
                            }
                            JOINT LeftFinger4
                            {
                                OFFSET   7.435080   0.000000  -3.252850
                                CHANNELS 3 Zrotation Xrotation Yrotation
                                JOINT LeftFinger41
                                {
                                    OFFSET   3.717550   0.000000   0.000000
                                    CHANNELS 3 Zrotation Xrotation Yrotation
                                    JOINT LeftFinger42
                                    {
                                        OFFSET   1.858760   0.000000   0.000000
                                        CHANNELS 3 Zrotation Xrotation Yrotation
                                        End Site
                                        {
                                            OFFSET   1.818440   0.000000   0.000000
                                        }
                                    }
                                }
                            }
                        }
                    }
                }
            }
            JOINT RightCollar
            {
                OFFSET  -3.911900  19.017000  -0.467064
                CHANNELS 3 Zrotation Xrotation Yrotation
                JOINT RightShoulder
                {
                    OFFSET -10.383700   0.000000   0.000000
                    CHANNELS 3 Zrotation Xrotation Yrotation
                    JOINT RightElbow
                    {
                        OFFSET -26.662100   0.001633   0.000260
                        CHANNELS 3 Zrotation Xrotation Yrotation
                        JOINT RightWrist
                        {
                            OFFSET -28.869000  -0.000045  -0.000080
                            CHANNELS 3 Zrotation Xrotation Yrotation
                            JOINT RightFinger0
                            {
                                OFFSET  -2.044660  -2.323490   3.252850
                                CHANNELS 3 Zrotation Xrotation Yrotation
                                JOINT RightFinger01
                                {
                                    OFFSET  -3.088140   0.000000   0.000000
                                    CHANNELS 3 Zrotation Xrotation Yrotation
                                    JOINT RightFinger02
                                    {
                                        OFFSET  -2.639450   0.000000   0.000000
                                        CHANNELS 3 Zrotation Xrotation Yrotation
                                        End Site
                                        {
                                            OFFSET  -2.582190   0.000000   0.000000
                                        }
                                    }
                                }
                            }
                            JOINT RightFinger1
                            {
                                OFFSET  -8.364480   0.000000   3.252850
                                CHANNELS 3 Zrotation Xrotation Yrotation
                                JOINT RightFinger11
                                {
                                    OFFSET  -4.646920   0.000000   0.000000
                                    CHANNELS 3 Zrotation Xrotation Yrotation
                                    JOINT RightFinger12
                                    {
                                        OFFSET  -2.323470   0.000000   0.000000
                                        CHANNELS 3 Zrotation Xrotation Yrotation
                                        End Site
                                        {
                                            OFFSET  -2.273050   0.000000   0.000000
                                        }
                                    }
                                }
                            }
                            JOINT RightFinger2
                            {
                                OFFSET  -8.364480   0.000000   1.078090
                                CHANNELS 3 Zrotation Xrotation Yrotation
                                JOINT RightFinger21
                                {
                                    OFFSET  -5.111610   0.000000   0.000000
                                    CHANNELS 3 Zrotation Xrotation Yrotation
                                    JOINT RightFinger22
                                    {
                                        OFFSET  -2.788160   0.000000   0.000000
                                        CHANNELS 3 Zrotation Xrotation Yrotation
                                        End Site
                                        {
                                            OFFSET  -2.727660   0.000000   0.000000
                                        }
                                    }
                                }
                            }
                            JOINT RightFinger3
                            {
                                OFFSET  -7.899780   0.000000  -1.078090
                                CHANNELS 3 Zrotation Xrotation Yrotation
                                JOINT RightFinger31
                                {
                                    OFFSET  -4.646930   0.000000   0.000000
                                    CHANNELS 3 Zrotation Xrotation Yrotation
                                    JOINT RightFinger32
                                    {
                                        OFFSET  -2.323470   0.000000   0.000000
                                        CHANNELS 3 Zrotation Xrotation Yrotation
                                        End Site
                                        {
                                            OFFSET  -2.273050   0.000000   0.000000
                                        }
                                    }
                                }
                            }
                            JOINT RightFinger4
                            {
                                OFFSET  -7.435090   0.000000  -3.252850
                                CHANNELS 3 Zrotation Xrotation Yrotation
                                JOINT RightFinger41
                                {
                                    OFFSET  -3.717550   0.000000   0.000000
                                    CHANNELS 3 Zrotation Xrotation Yrotation
                                    JOINT RightFinger42
                                    {
                                        OFFSET  -1.858760   0.000000   0.000000
                                        CHANNELS 3 Zrotation Xrotation Yrotation
                                        End Site
                                        {
                                            OFFSET  -1.818440   0.000000   0.000000
                                        }
                                    }
                                }
                            }
                        }
                    }
                }
            }
        }
    }
    JOINT LeftHip
    {
        OFFSET   9.782990   0.000000   0.000000
        CHANNELS 3 Zrotation Xrotation Yrotation
        JOINT LeftKnee
        {
            OFFSET  -0.000063 -41.789100   0.001657
            CHANNELS 3 Zrotation Xrotation Yrotation
            JOINT LeftAnkle
            {
                OFFSET   0.000078 -41.133200  -0.000113
                CHANNELS 3 Zrotation Xrotation Yrotation
                JOINT LeftToe
                {
                    OFFSET   0.000000  -6.358970  14.674500
                    CHANNELS 3 Zrotation Xrotation Yrotation
                    End Site
                    {
                        OFFSET   0.000000   0.000000   3.913200
                    }
                }
            }
        }
    }
    JOINT RightHip
    {
        OFFSET  -9.782990   0.000000   0.000000
        CHANNELS 3 Zrotation Xrotation Yrotation
        JOINT RightKnee
        {
            OFFSET   0.000053 -41.789200   0.000277
            CHANNELS 3 Zrotation Xrotation Yrotation
            JOINT RightAnkle
            {
                OFFSET   0.000030 -41.133200  -0.000150
                CHANNELS 3 Zrotation Xrotation Yrotation
                JOINT RightToe
                {
                    OFFSET   0.000000  -6.358960  14.674500
                    CHANNELS 3 Zrotation Xrotation Yrotation
                    End Site
                    {
                        OFFSET   0.000000   0.000000   3.913200
                    }
                }
            }
        }
    }
}
MOTION
Frames: 6
Frame Time:   0.016667
  0.388132  89.456800   2.850090  -1.819290  -6.155690  -1.784240   1.384740   3.150530  -0.713841   2.815140   6.282640  -1.507260   1.461100   0.364549  -0.005245   2.400510   0.737210   0.444982  -3.810180  -1.168970   2.634430 -76.650000  14.145400   1.518820  -1.978570  -4.437080 -14.427800  13.580400  -0.908632   2.933530  38.995500  34.300500 -59.664600 -34.361800  -0.004962  -0.003204 -12.175900   0.003483  -0.001497 -30.607800   4.502760  -7.559340 -25.286300   0.003719  -0.010227 -17.692600   0.000441  -0.010643 -28.595700  -1.846210   3.382870 -38.090000   0.002141  -0.003624 -25.368000   0.008245  -0.007019 -28.542300  -1.842990   3.384620 -37.281900   0.006357  -0.000823 -24.829800   0.005711   0.000389 -32.998000  -2.776070   4.265530 -49.652200   0.002817   0.002702 -33.068400   0.002193   0.003849   9.045020   0.730436   7.238400  70.202300   5.423890  -6.058400  -0.853738  -8.553280  10.830700 -15.591800  -7.838930   3.520430 -36.009700  27.639400  57.110400  33.384000   0.001292  -0.002284  11.692000   0.002556  -0.001927  36.065000   7.743340  10.482500  30.089500  -0.002373  -0.000899  21.062700  -0.010084  -0.000348  32.068800   3.059090   4.869050  48.298200  -0.001117  -0.000458  32.166600  -0.002484   0.000270  28.790900   0.322076   0.586009  41.927800  -0.004601  -0.002714  27.923900  -0.003395  -0.001067  39.462700  -0.919587  -1.116730  59.207500  -0.005686  -0.002433  39.432200  -0.004095  -0.000382   3.470380   9.303760   3.917240   1.434560   0.054362   6.364820  -3.589070  -3.287360  -1.280400  -0.000000   0.000000   0.000000   0.617027   9.419750   2.096390   0.874260   0.393169  -9.173940  -0.383374  -4.557130  -3.422150  -0.000000   0.000000  -0.000000
  0.388004  89.456700   2.844290  -1.841860  -6.146760  -1.886710   1.373260   3.158230  -0.677147   2.790230   6.299070  -1.433280   1.468120   0.355015  -0.005298   2.412130   0.717778   0.547685  -3.799660  -1.174340   2.606950 -76.638200  14.109600   1.550210  -1.975310  -4.421570 -14.436500  13.618000  -0.934806   2.931890  38.985300  34.282700 -59.626900 -34.363900  -0.004951  -0.003218 -12.179300   0.003487  -0.001495 -30.607400   4.491990  -7.543910 -25.285000   0.003719  -0.010229 -17.693400   0.000444  -0.010642 -28.594900  -1.853110   3.395570 -38.087500   0.002140  -0.003622 -25.366300   0.008244  -0.007019 -28.541600  -1.849880   3.397320 -37.279200   0.006356  -0.000823 -24.828000   0.005711   0.000388 -32.992900  -2.775270   4.265310 -49.644400   0.002815   0.002703 -33.063200   0.002192   0.003846   9.065360   0.702002   7.216330  70.228800   5.470790  -6.098570  -0.871815  -8.515030  10.817100 -15.621800  -7.846210   3.413940 -35.889700  27.518100  57.105900  33.477500   0.001290  -0.002275  11.738700   0.002550  -0.001940  36.112300   7.706660  10.416300  30.121900  -0.002371  -0.000900  21.085400  -0.010090  -0.000348  32.056800   3.024710   4.816810  48.275800  -0.001119  -0.000457  32.151700  -0.002484   0.000270  28.790100   0.289796   0.527271  41.883500  -0.004601  -0.002712  27.894400  -0.003395  -0.001067  39.459700  -0.918745  -1.115810  59.203000  -0.005684  -0.002431  39.429200  -0.004095  -0.000383   3.468740   9.319070   3.921890   1.442010   0.027988   6.407160  -3.571730  -3.287700  -1.222710   0.000000   0.000000  -0.000000   0.618540   9.378370   2.095760   0.870494   0.406374  -9.127940  -0.377743  -4.538230  -3.362930  -0.000000   0.000000   0.000000
  0.387714  89.456600   2.834860  -1.877440  -6.131380  -2.042340   1.355180   3.170450  -0.621228   2.751070   6.325100  -1.320520   1.478750   0.332108  -0.005374   2.429550   0.671330   0.729273  -3.780550  -1.185030   2.576760 -76.617200  14.059600   1.583150  -1.972040  -4.406050 -14.445100  13.671200  -0.980267   2.930280  38.975200  34.264800 -59.589200 -34.370600  -0.004940  -0.003232 -12.185300   0.003490  -0.001491 -30.607300   4.481280  -7.523940 -25.283600   0.003719  -0.010232 -17.698500   0.000446  -0.010642 -28.594300  -1.860020   3.408260 -38.085000   0.002139  -0.003619 -25.364600   0.008243  -0.007018 -28.540900  -1.856770   3.410030 -37.276500   0.006354  -0.000823 -24.826200   0.005711   0.000384 -32.987800  -2.774480   4.264760 -49.636700   0.002812   0.002705 -33.058000   0.002192   0.003841   9.094780   0.661873   7.194250  70.267800   5.520920  -6.171310  -0.892690  -8.462190  10.803100 -15.671200  -7.853900   3.251000 -35.774400  27.382800  57.124200  33.570900   0.001285  -0.002267  11.785500   0.002540  -0.001952  36.159500   7.669950  10.350200  30.154300  -0.002369  -0.000900  21.108000  -0.010100  -0.000346  31.991300   2.971710   4.744780  48.171500  -0.001121  -0.000452  32.082200  -0.002479   0.000270  28.787400   0.240069   0.436820  41.747100  -0.004598  -0.002707  27.803500  -0.003395  -0.001066  39.438700  -0.912848  -1.109340  59.171300  -0.005679  -0.002428  39.408100  -0.004095  -0.000383   3.467360   9.334340   3.930430   1.453740   0.001619   6.469620  -3.545890  -3.289670  -1.135590  -0.000000   0.000000  -0.000000   0.621144   9.317520   2.092740   0.862804   0.426720  -9.058960  -0.368981  -4.511340  -3.269370   0.000000   0.000000   0.000000
  0.387290  89.456700   2.827920  -1.901860  -6.117250  -2.136470   1.342480   3.177840  -0.586755   2.723810   6.340850  -1.250920   1.485210   0.301077  -0.005411   2.440470   0.608816   0.898047  -3.762520  -1.197840   2.573590 -76.599200  14.038900   1.584950  -1.965480  -4.408540 -14.433800  13.696700  -1.031240   2.938530  38.949600  34.240400 -59.620900 -34.386600  -0.004947  -0.003231 -12.192400   0.003480  -0.001483 -30.628900   4.482400  -7.518640 -25.301100   0.003721  -0.010235 -17.712900   0.000446  -0.010645 -28.594600  -1.858920   3.405880 -38.131300   0.002139  -0.003615 -25.395500   0.008241  -0.007016 -28.541200  -1.855670   3.407650 -37.313000   0.006354  -0.000824 -24.850400   0.005709   0.000379 -33.004500  -2.775920   4.264350 -49.661500   0.002811   0.002703 -33.074600   0.002191   0.003834   9.109130   0.643571   7.196060  70.293100   5.524300  -6.247910  -0.883372  -8.448910  10.809400 -15.701000  -7.773920   3.154050 -35.790700  27.375000  57.160300  33.543400   0.001280  -0.002274  11.771700   0.002536  -0.001940  36.043200   7.720480  10.455700  30.069400  -0.002368  -0.000900  21.048600  -0.010105  -0.000344  31.832600   2.940890   4.725090  47.936300  -0.001119  -0.000445  31.925500  -0.002467   0.000273  28.782300   0.208558   0.379581  41.475200  -0.004588  -0.002701  27.622500  -0.003390  -0.001063  39.367800  -0.892638  -1.087490  59.064300  -0.005673  -0.002425  39.336900  -0.004089  -0.000383   3.470430   9.310570   3.938860   1.461000   0.047333   6.503400  -3.532630  -3.326360  -1.084950   0.000000   0.000000   0.000000   0.631627   9.286040   2.082720   0.854597   0.442053  -9.021150  -0.360464  -4.502750  -3.202950   0.000000   0.000000  -0.000000
  0.386839  89.457100   2.821130  -1.923640  -6.104280  -2.209580   1.331980   3.186760  -0.560050   2.701410   6.359450  -1.197040   1.489880   0.257571  -0.005425   2.447140   0.521103   1.076060  -3.742180  -1.211560   2.573150 -76.590300  14.032300   1.585180  -1.959100  -4.422660 -14.417900  13.706400  -1.062920   2.946770  38.909300  34.206000 -59.671500 -34.398100  -0.004954  -0.003228 -12.196900   0.003471  -0.001476 -30.657600   4.486670  -7.517930 -25.324800   0.003725  -0.010238 -17.727400   0.000446  -0.010651 -28.595200  -1.854300   3.396950 -38.177700   0.002139  -0.003611 -25.426400   0.008239  -0.007012 -28.541800  -1.851060   3.398710 -37.356700   0.006353  -0.000825 -24.879500   0.005706   0.000372 -33.027000  -2.777360   4.262820 -49.695600   0.002810   0.002701 -33.097300   0.002190   0.003825   9.118210   0.636950   7.206510  70.308700   5.524140  -6.319660  -0.861025  -8.436850  10.815700 -15.757700  -7.646610   3.067520 -35.795200  27.381400  57.174000  33.516000   0.001274  -0.002281  11.758000   0.002530  -0.001920  35.882900   7.770320  10.586100  29.948600  -0.002365  -0.000899  20.964000  -0.010111  -0.000342  31.642400   2.910200   4.710740  47.643300  -0.001114  -0.000435  31.730400  -0.002451   0.000277  28.776700   0.182513   0.332300  41.190700  -0.004575  -0.002693  27.433000  -0.003380  -0.001058  39.288700  -0.870012  -1.063110  58.945100  -0.005664  -0.002419  39.257500  -0.004079  -0.000382   3.478050   9.286800   3.948120   1.463960   0.093042   6.525800  -3.522190  -3.361440  -1.045120   0.000000   0.000000   0.000000   0.652265   9.263980   2.066070   0.843043   0.450268  -8.989990  -0.352766  -4.493250  -3.147340  -0.000000   0.000000  -0.000000
  0.386514  89.457500   2.814380  -1.943370  -6.096760  -2.263380   1.324710   3.202300  -0.541874   2.686030   6.391020  -1.160600   1.492000   0.196943  -0.004732   2.449730   0.398550   1.257730  -3.718140  -1.226300   2.592970 -76.585300  14.053500   1.562050  -1.964200  -4.458040 -14.410900  13.695000  -1.059330   2.941200  38.892700  34.197200 -59.723400 -34.396900  -0.004943  -0.003215 -12.196400   0.003473  -0.001474 -30.665500   4.498270  -7.531930 -25.332300   0.003729  -0.010244 -17.732600   0.000443  -0.010656 -28.596400  -1.843740   3.377470 -38.176800   0.002137  -0.003605 -25.425800   0.008236  -0.007008 -28.543000  -1.840560   3.379200 -37.365100   0.006349  -0.000825 -24.885100   0.005704   0.000366 -33.035400  -2.766650   4.244440 -49.707600   0.002808   0.002701 -33.105300   0.002188   0.003814   9.124890   0.637029   7.233530  70.306000   5.497240  -6.361700  -0.835651  -8.399010  10.813800 -15.902500  -7.539060   2.976360 -35.775600  27.383300  57.170300  33.536500   0.001267  -0.002267  11.768300   0.002513  -0.001906  35.810100   7.768200  10.615000  29.889800  -0.002355  -0.000891  20.922800  -0.010126  -0.000339  31.533400   2.867480   4.662780  47.371200  -0.001103  -0.000422  31.549100  -0.002435   0.000282  28.772900   0.157383   0.286660  41.030500  -0.004565  -0.002683  27.326300  -0.003370  -0.001051  39.257400  -0.861093  -1.053440  58.897900  -0.005650  -0.002411  39.226100  -0.004069  -0.000384   3.490500   9.310470   3.957320   1.460910   0.049038   6.537000  -3.509390  -3.348250  -1.011450  -0.000000   0.000000   0.000000   0.680301   9.251060   2.043450   0.824337   0.435084  -8.957580  -0.349762  -4.466930  -3.104690  -0.000000   0.000000  -0.000000
